<?xml version="1.0" standalone="no"?>
<!DOCTYPE svg PUBLIC "-//W3C//DTD SVG 20010904//EN"
 "http://www.w3.org/TR/2001/REC-SVG-20010904/DTD/svg10.dtd">
<svg version="1.0" xmlns="http://www.w3.org/2000/svg"
 width="700.000000pt" height="700.000000pt" viewBox="0 0 700.000000 700.000000"
 preserveAspectRatio="xMidYMid meet">
<metadata>
Created by potrace 1.14, written by Peter Selinger 2001-2017
</metadata>
<g transform="translate(0.000000,700.000000) scale(0.100000,-0.100000)"
fill="#000000" stroke="none">
<path d="M1998 6315 c-2 -2 -15 -6 -29 -8 -40 -8 -101 -42 -138 -79 -51 -50
-78 -115 -80 -196 -2 -63 2 -76 39 -148 22 -43 44 -80 48 -83 4 -4 12 -14 17
-23 6 -10 63 -99 128 -198 65 -100 120 -187 123 -195 3 -8 -9 -23 -29 -37 -80
-54 -242 -207 -339 -319 -26 -30 -59 -67 -73 -84 -44 -52 -189 -276 -233 -361
-104 -203 -199 -477 -225 -649 -3 -16 -8 -48 -11 -70 -4 -22 -9 -55 -12 -72
-5 -32 -6 -32 -52 -29 -106 9 -385 20 -502 21 -111 0 -130 -3 -172 -23 -104
-52 -161 -143 -162 -262 0 -62 4 -84 26 -125 32 -63 78 -108 137 -138 40 -19
61 -22 171 -22 105 1 284 7 502 19 47 3 48 3 53 -30 3 -19 7 -49 10 -66 3 -18
7 -44 10 -58 3 -14 8 -41 11 -60 22 -134 117 -406 201 -575 140 -279 367 -559
613 -758 41 -33 74 -66 74 -73 -1 -7 -35 -63 -76 -126 -173 -262 -256 -395
-266 -425 -18 -52 -9 -172 15 -219 81 -154 284 -206 430 -110 21 14 47 37 58
52 20 26 109 194 231 436 36 70 68 129 73 132 4 3 18 -1 32 -8 49 -25 247 -88
364 -116 106 -25 158 -34 330 -56 55 -7 349 -6 410 1 152 17 222 29 330 55
129 31 271 75 347 108 35 16 49 18 56 9 5 -7 39 -70 75 -142 179 -355 204
-400 241 -437 56 -57 115 -81 206 -81 62 0 84 4 125 25 64 33 108 78 140 141
20 42 24 61 22 126 -4 92 -11 107 -171 351 -63 96 -132 202 -152 234 l-37 59
29 21 c16 11 67 55 114 96 282 248 485 530 629 870 63 148 128 388 148 540 3
25 7 52 9 60 1 8 3 18 3 23 1 4 20 5 44 3 71 -8 374 -20 507 -20 111 -1 130 2
172 22 228 113 215 443 -22 533 -50 19 -68 21 -210 15 -223 -9 -356 -16 -427
-21 l-61 -4 -7 42 c-4 23 -9 56 -11 72 -86 544 -375 1051 -809 1415 -55 47
-99 90 -99 96 1 11 15 32 216 339 117 180 134 216 137 295 4 112 -57 213 -164
268 -65 33 -177 35 -245 5 -94 -42 -109 -65 -354 -548 -58 -114 -50 -107 -104
-84 -109 48 -363 121 -466 134 -21 3 -42 7 -45 9 -3 2 -40 7 -81 11 -41 4 -84
9 -95 11 -52 11 -362 4 -480 -11 -191 -23 -511 -108 -615 -162 -19 -10 -27
-10 -36 0 -6 6 -72 130 -145 275 -74 145 -145 276 -159 291 -34 37 -83 70
-123 83 -32 10 -132 19 -139 13z m1792 -1089 c135 -24 338 -84 363 -106 8 -7
-95 -215 -278 -565 -29 -55 -67 -128 -84 -163 -27 -54 -34 -61 -50 -53 -10 6
-32 13 -50 16 -17 3 -46 8 -63 11 -67 12 -225 6 -306 -11 -45 -10 -84 -16 -86
-14 -3 4 -93 178 -286 552 -62 121 -108 223 -104 227 28 28 305 101 439 116
33 3 61 8 63 9 12 11 361 -4 442 -19z m-1299 -428 c29 -46 107 -166 174 -268
191 -292 245 -376 245 -384 0 -4 -18 -25 -40 -47 -92 -91 -183 -246 -211 -357
l-13 -53 -111 6 c-60 3 -146 8 -190 10 -44 2 -143 7 -220 11 -77 3 -160 8
-185 9 -25 2 -75 4 -111 4 l-66 1 18 98 c64 336 229 651 469 893 83 83 168
158 182 159 3 0 30 -37 59 -82z m2160 18 c256 -220 446 -523 538 -857 23 -86
47 -216 40 -223 -2 -2 -67 -7 -144 -10 -134 -6 -186 -9 -410 -21 -342 -18
-325 -18 -325 -1 0 25 -30 107 -67 181 -39 78 -89 149 -152 212 -22 23 -41 45
-41 50 0 5 60 100 133 211 72 111 179 274 236 362 58 88 108 160 111 160 4 0
40 -29 81 -64z m-1988 -1566 c28 -96 92 -222 137 -271 73 -78 110 -120 110
-126 0 -7 -54 -92 -247 -387 -80 -121 -164 -249 -186 -283 -22 -35 -44 -63
-48 -63 -9 0 -187 159 -214 191 -141 167 -205 260 -276 400 -80 161 -151 378
-166 507 l-5 52 63 1 c35 0 89 2 119 4 30 2 105 6 165 9 61 3 169 8 240 12 72
3 131 7 132 7 1 1 37 3 80 5 l78 2 18 -60z m2002 45 c44 -2 141 -7 215 -11 74
-4 158 -8 185 -9 28 -2 76 -4 108 -4 l59 -1 -7 -57 c-3 -32 -8 -60 -10 -63 -2
-3 -6 -21 -9 -40 -18 -114 -143 -418 -216 -526 -16 -25 -30 -47 -30 -49 0 -3
-28 -42 -62 -87 -97 -128 -317 -343 -334 -325 -3 3 -112 169 -243 368 l-236
363 43 45 c102 106 174 227 208 347 l19 65 115 -6 c63 -3 151 -8 195 -10z
m-1343 -651 c95 -21 261 -20 362 1 43 9 82 13 86 8 4 -4 94 -178 199 -386 175
-343 191 -380 175 -391 -24 -18 -206 -74 -295 -91 -141 -27 -174 -29 -344 -30
-161 0 -220 5 -325 26 -108 21 -156 34 -259 70 -46 16 -86 29 -89 29 -2 0 0 6
6 13 8 10 204 392 346 675 25 50 50 92 55 92 6 0 43 -7 83 -16z"/>
</g>
</svg>
